<svg width="48" height="69" viewBox="0 0 48 69" fill="none" xmlns="http://www.w3.org/2000/svg">
<path d="M14.0362 68.4635C12.355 68.4043 11.777 68.3158 11.6967 68.1054C11.5773 67.7923 11.7753 66.1015 12.5127 61.1408C12.789 59.2817 13.1908 56.4631 13.4055 54.8776C13.6201 53.2918 13.934 51.1654 14.1031 50.1521C14.272 49.1387 14.3479 48.1994 14.2715 48.0643C13.894 47.3967 12.0241 44.5859 9.14815 40.3628C3.60929 32.2293 0.620285 27.7572 0.284343 27.1007C-0.231657 26.0922 -0.111734 25.6607 1.19835 23.8108C1.87576 22.8543 2.83034 21.4862 3.31965 20.7706C5.77693 17.1767 10.1999 10.9112 10.5702 10.4998C10.748 10.3021 11.0502 10.1404 11.2417 10.1404C11.5584 10.1404 23.358 15.2985 25.4591 16.3553C26.0211 16.638 26.4125 16.9943 26.5283 17.3287C26.744 17.9508 26.3209 21.3043 25.9651 21.7936C25.694 22.1665 24.9163 22.3284 21.2484 22.7757C17.7342 23.2043 17.3031 23.0719 15.2399 20.93C14.4563 20.1166 13.7305 19.5038 13.6269 19.5683C13.4026 19.7077 13.8315 21.4872 14.2449 22.1325C15.0567 23.3994 14.7438 23.9902 13.1204 24.2554C11.8818 24.4578 11.4123 24.7231 11.7318 25.0402C11.8351 25.1427 13.3137 25.7557 15.0176 26.4025C17.3089 27.2722 18.2468 27.7285 18.6194 28.1549C18.8965 28.4717 19.126 28.7854 19.1294 28.8517C19.1329 28.918 19.5705 29.7234 20.1019 30.6413C28.2845 44.7754 28.1003 44.4377 27.9514 45.0337C27.8767 45.3335 27.3725 45.833 26.641 46.3328C25.9871 46.7793 25.5075 47.2349 25.5753 47.3452C25.6429 47.4552 26.1566 47.5174 26.7169 47.4834L27.7356 47.4212L27.6876 49.3102C27.661 50.3491 27.415 53.9281 27.141 57.2634C26.3247 67.199 26.2599 67.8664 26.0835 68.153C25.9239 68.413 18.2299 68.6113 14.0362 68.4635ZM28.3781 68.4346C27.5925 68.3435 27.3897 67.7986 27.5257 66.1452C27.9266 61.2761 28.2457 57.6548 28.335 56.9653C28.3914 56.5278 28.6107 54.2981 28.8219 52.0107C29.0332 49.723 29.2954 47.7614 29.4049 47.6513C29.5381 47.5172 29.9001 47.5196 30.5032 47.6583C30.9976 47.7723 31.446 47.7942 31.4996 47.7072C31.5531 47.6202 31.0763 46.6702 30.44 45.5964C29.8037 44.5222 28.6348 42.5251 27.8424 41.1583C27.0498 39.7911 26.2015 38.3596 25.9569 37.9767C25.7123 37.5941 24.377 35.329 22.9894 32.9431C21.2425 29.9394 20.5299 28.5419 20.6723 28.3986C20.8147 28.2555 21.4157 28.2638 22.6264 28.4256C24.0405 28.6148 24.885 28.8894 27.0438 29.8614C31.3028 31.7791 31.4178 31.8544 33.69 34.1956C35.0926 35.6409 35.9604 36.3861 36.2407 36.3861C36.7009 36.3861 37.5174 35.8426 41.2629 33.0418C42.6052 32.0379 43.7835 31.2167 43.8809 31.2167C44.2748 31.2167 44.2505 31.9186 43.7519 34.9281C42.5319 42.2931 41.1107 45.8777 38.0888 49.2118L36.7005 50.7437L36.817 59.3458C36.9236 67.2235 36.9057 67.9708 36.6035 68.2225C36.3488 68.4349 35.4353 68.4976 32.5978 68.4976C30.576 68.4976 28.6772 68.4691 28.3781 68.4346ZM34.2829 33.4856C32.8378 31.9314 32.5575 31.5296 32.7013 31.2174C32.7973 31.0087 33.6849 29.9613 34.6736 28.8899C35.6626 27.8184 36.8474 26.5043 37.3066 25.9695C37.7661 25.4348 38.2683 24.8701 38.4229 24.7146C38.5775 24.5591 39.6019 23.4153 40.6997 22.1725C41.7974 20.9297 42.8095 19.8688 42.9491 19.8149C43.4412 19.625 48 25.0042 48 25.7747C48 26.0509 47.3671 26.6175 43.3652 29.9241C41.6447 31.3457 39.4705 33.1569 38.5336 33.949C37.5965 34.741 36.652 35.3856 36.4344 35.3817C36.1956 35.3773 35.3444 34.6271 34.2829 33.4856ZM27.743 29.3065C26.2246 28.5971 24.9388 27.9727 24.8852 27.919C24.6139 27.6459 25.6199 26.1503 30.1047 20.1594C35.6324 12.7752 35.7711 12.6087 36.1937 12.8518C36.8307 13.2184 41.8712 18.2744 41.8712 18.5469C41.8712 18.9909 41.6601 19.2444 34.546 27.3393C33.3926 28.6515 32.2806 29.9266 32.0749 30.1727C31.4957 30.8651 30.7668 30.7193 27.743 29.3065ZM19.2346 26.021C15.9106 24.7654 15.4854 24.5293 15.7562 24.0888C15.8913 23.869 16.1259 23.8636 17.0604 24.0587C18.3026 24.3181 19.4227 24.23 22.1012 23.6622C25.7425 22.8904 26.0146 22.9484 25.351 24.3548C24.9291 25.2489 23.0791 27.2441 22.687 27.228C22.5279 27.2212 20.9743 26.6782 19.2346 26.021ZM27.3431 19.0109C27.4302 17.6101 27.4092 16.6126 27.2881 16.395C27.1803 16.2015 26.0804 15.5427 24.844 14.931C23.5289 14.2805 22.5709 13.6845 22.5362 13.4953C22.4792 13.184 27.0691 6.01818 27.5168 5.71944C28.196 5.26616 28.7042 5.6165 31.7538 8.64123L34.8528 11.7152L34.5397 12.2784C34.3673 12.5881 33.1214 14.2693 31.7709 16.0144C30.4204 17.7595 28.964 19.657 28.5344 20.2311C27.3258 21.8463 27.1764 21.6934 27.3431 19.0109ZM20.5196 12.7653C19.3135 12.3579 13.2748 9.65949 13.1588 9.47598C12.9301 9.11458 12.9246 9.12476 14.525 6.94191C15.3599 5.80312 16.663 4.02136 17.4209 2.98248C19.137 0.629863 19.7112 0 20.1394 0C20.5345 0 22.3274 1.28836 24.63 3.22679C25.9924 4.37375 26.2483 4.67934 26.146 5.03727C25.9856 5.5994 21.3075 12.685 21.0295 12.7871C20.9122 12.8302 20.6827 12.8204 20.5196 12.7653Z" fill="#510006"/>
<path d="M14.9355 61.9542V61.7054L16.3094 61.0523V52.5935L14.9355 51.9404V51.6917H21.1412C21.944 51.6917 22.6489 51.79 23.2561 51.9871C23.8633 52.1737 24.3317 52.4691 24.6609 52.8734C25.0005 53.2777 25.1703 53.8013 25.1703 54.4439C25.1703 55.0347 24.9747 55.5479 24.5837 55.9833C24.2029 56.4186 23.6832 56.7556 23.0246 56.994C22.3659 57.2323 21.6146 57.3516 20.7707 57.3516H19.2425V61.0523L20.9406 61.7054V61.9542H14.9355ZM19.2425 52.5469V56.6519H19.6284C20.4414 56.6519 21.0795 56.4548 21.5426 56.061C22.0057 55.6672 22.2373 55.1798 22.2373 54.5994C22.2373 53.8737 22.0006 53.3503 21.5272 53.0289C21.064 52.7075 20.3951 52.5469 19.5203 52.5469H19.2425ZM27.8547 61.9542V61.7054L29.5528 61.0523V52.5469H27.546L26.1875 55.2835H25.9405V51.6917H36.0982V55.2835H35.8512L34.4927 52.5469H32.4859V61.0523L34.184 61.7054V61.9542H27.8547Z" fill="white"/>
</svg>
